<?xml version="1.0" encoding="UTF-8" standalone="no"?>
<svg
   version="1.0"
   width="1377.000000pt"
   height="1377.000000pt"
   viewBox="0 0 1377.000000 1377.000000"
   preserveAspectRatio="xMidYMid meet"
   id="svg8"
   sodipodi:docname="safari-pinned-tab.svg"
   inkscape:version="1.1.2 (0a00cf5339, 2022-02-04)"
   xmlns:inkscape="http://www.inkscape.org/namespaces/inkscape"
   xmlns:sodipodi="http://sodipodi.sourceforge.net/DTD/sodipodi-0.dtd"
   xmlns="http://www.w3.org/2000/svg"
   xmlns:svg="http://www.w3.org/2000/svg">
  <defs
     id="defs12" />
  <sodipodi:namedview
     id="namedview10"
     pagecolor="#ffffff"
     bordercolor="#666666"
     borderopacity="1.0"
     inkscape:pageshadow="2"
     inkscape:pageopacity="0.0"
     inkscape:pagecheckerboard="0"
     inkscape:document-units="pt"
     showgrid="false"
     inkscape:zoom="0.40577342"
     inkscape:cx="918"
     inkscape:cy="918"
     inkscape:window-width="1920"
     inkscape:window-height="993"
     inkscape:window-x="0"
     inkscape:window-y="0"
     inkscape:window-maximized="1"
     inkscape:current-layer="svg8" />
  <metadata
     id="metadata2">
Created by potrace 1.14, written by Peter Selinger 2001-2017
</metadata>
  <g
     transform="matrix(0.1,0,0,-0.1,0,1377)"
     fill="#000000"
     stroke="none"
     id="g6">
    <path
       d="m 6568,13765 c -2,-1 -46,-5 -98,-9 -225,-14 -307,-21 -360,-30 -14,-3 -52,-7 -85,-11 -33,-3 -69,-8 -80,-10 -11,-2 -40,-7 -65,-10 -25,-3 -56,-7 -70,-10 -13,-2 -42,-7 -65,-11 -74,-10 -299,-55 -405,-80 -58,-14 -112,-27 -120,-29 -8,-1 -35,-9 -60,-16 -25,-7 -54,-14 -65,-16 -11,-2 -51,-13 -90,-25 -38,-12 -76,-23 -82,-24 -31,-6 -340,-110 -448,-151 -399,-151 -782,-335 -1125,-541 -238,-143 -546,-354 -719,-494 -82,-65 -233,-191 -256,-211 -11,-10 -61,-55 -112,-100 -131,-117 -421,-411 -549,-557 -304,-347 -558,-702 -789,-1100 -109,-187 -303,-572 -361,-717 -8,-21 -21,-51 -29,-68 -30,-68 -141,-356 -149,-390 -2,-5 -6,-17 -9,-25 -20,-50 -126,-390 -133,-430 -3,-14 -13,-54 -24,-90 -26,-92 -86,-359 -105,-471 -2,-13 -11,-67 -20,-119 C 86,7968 77,7914 75,7900 18,7483 5,7292 5,6890 c 0,-268 9,-511 20,-582 2,-13 6,-57 9,-98 4,-41 8,-88 11,-105 2,-16 9,-70 15,-120 10,-86 13,-103 25,-177 9,-52 13,-80 20,-128 4,-24 8,-47 10,-50 2,-3 6,-26 10,-50 4,-25 13,-74 22,-110 8,-36 17,-74 19,-85 10,-55 69,-286 104,-405 88,-304 197,-606 327,-900 45,-102 218,-447 262,-523 28,-49 51,-91 51,-93 0,-9 198,-326 278,-444 135,-200 377,-515 503,-655 15,-16 55,-61 90,-100 141,-157 484,-491 623,-606 16,-13 34,-29 40,-34 30,-28 182,-151 276,-221 517,-392 1070,-700 1705,-949 66,-26 127,-49 135,-51 8,-1 69,-22 135,-44 139,-48 367,-117 445,-135 8,-2 51,-12 95,-24 44,-11 91,-22 105,-25 14,-2 54,-11 90,-19 131,-31 431,-82 595,-103 125,-15 142,-17 280,-28 33,-3 98,-8 145,-13 170,-14 827,-7 1025,12 121,11 182,18 200,21 11,2 45,6 76,9 31,3 64,7 75,9 10,2 44,7 74,11 30,4 64,9 75,12 11,2 38,6 60,9 22,3 46,7 54,10 8,2 30,7 50,10 20,3 79,15 131,26 52,10 106,22 120,24 65,13 385,97 489,129 631,196 1178,448 1710,789 95,61 180,116 189,121 9,6 25,18 36,27 11,10 28,20 38,24 10,3 18,10 18,15 0,5 8,13 18,16 50,20 399,298 621,498 94,83 423,415 502,505 41,47 77,87 80,90 10,8 111,131 174,210 33,41 63,77 68,78 4,2 7,8 7,13 0,6 9,19 20,31 49,53 380,535 380,554 0,4 6,15 14,23 25,29 286,495 291,521 1,3 26,57 57,120 135,282 244,556 341,865 44,138 95,311 102,344 2,9 17,72 34,141 17,69 32,136 35,150 2,14 14,70 25,125 12,55 24,116 27,135 13,88 19,123 30,185 2,10 6,49 10,85 3,36 8,67 9,70 4,6 16,112 20,170 1,19 5,62 9,95 27,259 28,940 1,1175 -2,19 -7,64 -10,100 -3,36 -8,81 -10,100 -58,459 -113,730 -240,1175 -55,193 -201,597 -274,757 -11,24 -45,99 -76,168 -69,152 -203,413 -275,535 -30,50 -59,99 -64,110 -50,93 -263,412 -384,575 -95,126 -279,357 -312,390 -3,3 -38,43 -79,90 -112,128 -481,493 -606,599 -60,52 -126,108 -146,125 -20,17 -51,42 -69,56 -19,14 -45,35 -59,46 -86,71 -310,232 -456,329 -555,366 -1125,636 -1770,838 -98,31 -348,100 -400,111 -11,3 -78,18 -150,34 -125,29 -372,75 -465,87 -110,14 -278,36 -315,40 -22,3 -80,8 -130,11 -49,3 -106,8 -125,10 -37,5 -757,14 -762,9 z"
       id="path4" />
  </g>
  <text
     xml:space="preserve"
     style="font-style:normal;font-variant:normal;font-weight:normal;font-stretch:normal;font-size:1645.61px;line-height:1.5;font-family:Perfect;-inkscape-font-specification:Perfect;text-align:center;text-anchor:middle;fill:#00ff00;stroke-width:194.364;stroke-miterlimit:3.8"
     x="688.49884"
     y="1264.465"
     id="text2767"><tspan
       sodipodi:role="line"
       id="tspan2765"
       style="font-style:normal;font-variant:normal;font-weight:normal;font-stretch:normal;font-family:Perfect;-inkscape-font-specification:Perfect;fill:#00ff00;stroke-width:194.364"
       x="688.49884"
       y="1264.465">O</tspan></text>
</svg>
